<?xml version="1.0" encoding="UTF-8"?>
<svg xmlns="http://www.w3.org/2000/svg" xmlns:xlink="http://www.w3.org/1999/xlink" width="273.775pt" height="217.76pt" viewBox="0 0 273.775 217.76" version="1.1">
<g id="surface1">
<path style=" stroke:none;fill-rule:nonzero;fill:rgb(0%,27.058411%,54.902649%);fill-opacity:1;" d="M 116.277344 121.847656 L 116.277344 125.792969 C 116.277344 127.117188 116.828125 127.730469 117.660156 127.730469 C 118.554688 127.730469 119.089844 127.117188 119.089844 125.792969 L 119.089844 121.847656 L 120.324219 121.847656 L 120.324219 125.714844 C 120.324219 127.800781 119.25 128.726562 117.621094 128.726562 C 116.054688 128.726562 115.042969 127.851562 115.042969 125.722656 L 115.042969 121.847656 Z M 110.746094 122.882812 L 108.816406 122.882812 L 108.816406 121.847656 L 113.929688 121.847656 L 113.929688 122.882812 L 111.980469 122.882812 L 111.980469 128.617188 L 110.746094 128.617188 Z M 106.476562 121.847656 L 107.714844 121.847656 L 107.714844 128.617188 L 106.476562 128.617188 Z M 123.375 122.882812 L 121.445312 122.882812 L 121.445312 121.847656 L 126.554688 121.847656 L 126.554688 122.882812 L 124.609375 122.882812 L 124.609375 128.617188 L 123.375 128.617188 Z M 121.105469 114.835938 L 108.90625 114.835938 L 108.90625 61.101562 L 121.105469 61.101562 Z M 76.152344 126.6875 C 76.152344 127.769531 75.328125 128.726562 73.582031 128.726562 C 72.871094 128.726562 72.125 128.515625 71.757812 128.292969 L 72.027344 127.269531 C 72.429688 127.5 73.03125 127.703125 73.664062 127.703125 C 74.457031 127.703125 74.898438 127.328125 74.898438 126.78125 C 74.898438 126.265625 74.554688 125.964844 73.691406 125.65625 C 72.578125 125.25 71.867188 124.660156 71.867188 123.683594 C 71.867188 122.582031 72.789062 121.738281 74.257812 121.738281 C 74.988281 121.738281 75.53125 121.898438 75.882812 122.078125 L 75.582031 123.074219 C 75.339844 122.941406 74.867188 122.75 74.234375 122.75 C 73.453125 122.75 73.109375 123.171875 73.109375 123.566406 C 73.109375 124.085938 73.503906 124.328125 74.40625 124.679688 C 75.582031 125.121094 76.152344 125.714844 76.152344 126.6875 M 131.765625 128.617188 L 127.679688 128.617188 L 127.679688 121.847656 L 131.613281 121.847656 L 131.613281 122.863281 L 128.914062 122.863281 L 128.914062 124.609375 L 131.464844 124.609375 L 131.464844 125.613281 L 128.914062 125.613281 L 128.914062 127.601562 L 131.765625 127.601562 Z M 100.246094 114.835938 L 58.46875 114.835938 L 58.46875 108.300781 L 84.058594 71.464844 L 84.058594 71.148438 L 60.859375 71.148438 L 60.859375 61.101562 L 99.84375 61.101562 L 99.84375 68.117188 L 74.8125 104.472656 L 74.8125 104.792969 L 100.246094 104.792969 Z M 78.8125 127.601562 L 81.664062 127.601562 L 81.664062 128.617188 L 77.578125 128.617188 L 77.578125 121.847656 L 81.511719 121.847656 L 81.511719 122.863281 L 78.8125 122.863281 L 78.8125 124.609375 L 81.363281 124.609375 L 81.363281 125.613281 L 78.8125 125.613281 Z M 69.175781 121.847656 L 70.410156 121.847656 L 70.410156 125.714844 C 70.410156 127.800781 69.335938 128.726562 67.710938 128.726562 C 66.144531 128.726562 65.128906 127.851562 65.128906 125.722656 L 65.128906 121.847656 L 66.363281 121.847656 L 66.363281 125.792969 C 66.363281 127.117188 66.917969 127.730469 67.75 127.730469 C 68.644531 127.730469 69.175781 127.117188 69.175781 125.792969 Z M 60.464844 127.589844 L 63.925781 127.589844 L 63.925781 128.617188 L 58.804688 128.617188 L 58.804688 127.933594 L 62.269531 122.902344 L 62.269531 122.871094 L 59.117188 122.871094 L 59.117188 121.847656 L 63.875 121.847656 L 63.875 122.574219 L 60.464844 127.550781 Z M 142.6875 122.863281 L 142.6875 124.609375 L 145.238281 124.609375 L 145.238281 125.613281 L 142.6875 125.613281 L 142.6875 127.601562 L 145.539062 127.601562 L 145.539062 128.617188 L 141.453125 128.617188 L 141.453125 121.847656 L 145.386719 121.847656 L 145.386719 122.863281 Z M 158.285156 121.847656 L 159.523438 121.847656 L 159.523438 128.617188 L 158.285156 128.617188 Z M 162.394531 123.304688 L 162.363281 123.3125 C 162.414062 124.1875 162.421875 125.082031 162.421875 126.195312 L 162.421875 128.617188 L 161.289062 128.617188 L 161.289062 121.847656 L 162.695312 121.847656 L 164.441406 124.75 C 164.894531 125.503906 165.285156 126.285156 165.59375 127.019531 L 165.617188 127.019531 C 165.535156 126.117188 165.507812 125.242188 165.507812 124.207031 L 165.507812 121.847656 L 166.648438 121.847656 L 166.648438 128.617188 L 165.375 128.617188 L 163.609375 125.632812 C 163.175781 124.898438 162.722656 124.066406 162.394531 123.304688 M 143.292969 91.078125 L 147.4375 91.078125 C 153.496094 91.078125 158.359375 93.230469 158.359375 98.652344 C 158.359375 104.234375 153.496094 106.386719 147.996094 106.386719 C 145.921875 106.386719 144.488281 106.386719 143.292969 106.226562 Z M 143.292969 69.871094 C 144.328125 69.710938 145.84375 69.554688 148.476562 69.554688 C 153.976562 69.554688 157.085938 71.707031 157.085938 75.769531 C 157.085938 79.757812 153.65625 82.390625 147.277344 82.390625 L 143.292969 82.390625 Z M 165.535156 110.535156 C 168.886719 107.824219 171.117188 103.996094 171.117188 99.132812 C 171.117188 92.195312 166.574219 87.570312 160.433594 85.894531 L 160.433594 85.738281 C 166.492188 83.503906 169.285156 79.039062 169.285156 74.257812 C 169.285156 69.394531 166.574219 65.726562 162.824219 63.730469 C 158.917969 61.421875 154.375 60.703125 146.960938 60.703125 C 140.902344 60.703125 134.441406 61.179688 131.253906 61.820312 L 131.253906 114.597656 C 133.964844 114.996094 138.429688 115.394531 144.410156 115.394531 C 155.09375 115.394531 161.632812 113.640625 165.535156 110.535156 M 216.441406 61.101562 L 229.820312 61.101562 C 228.132812 126.464844 174.53125 179.136719 108.816406 179.332031 L 108.816406 165.964844 C 167.160156 165.765625 214.757812 119.089844 216.441406 61.101562 M 154.3125 121.847656 L 154.3125 127.582031 L 157.09375 127.582031 L 157.09375 128.617188 L 153.078125 128.617188 L 153.078125 121.847656 Z M 138.691406 126.617188 C 138.691406 127.453125 137.988281 127.75 137.195312 127.75 C 136.914062 127.75 136.703125 127.75 136.542969 127.722656 L 136.542969 125.511719 L 137.15625 125.511719 C 138.007812 125.511719 138.691406 125.832031 138.691406 126.617188 M 136.542969 122.761719 C 136.675781 122.730469 136.886719 122.710938 137.246094 122.710938 C 138.03125 122.710938 138.511719 123.003906 138.511719 123.636719 C 138.511719 124.207031 138.03125 124.609375 137.175781 124.609375 L 136.542969 124.609375 Z M 139.757812 123.496094 C 139.757812 122.921875 139.476562 122.480469 139.054688 122.230469 C 138.589844 121.910156 138.03125 121.796875 137.117188 121.796875 C 136.421875 121.796875 135.710938 121.859375 135.320312 121.9375 L 135.320312 128.59375 C 135.628906 128.636719 136.152344 128.683594 136.835938 128.683594 C 138.070312 128.683594 138.863281 128.472656 139.34375 128.050781 C 139.734375 127.730469 139.996094 127.257812 139.996094 126.660156 C 139.996094 125.722656 139.34375 125.160156 138.632812 124.980469 L 138.632812 124.960938 C 139.363281 124.6875 139.757812 124.117188 139.757812 123.496094 M 99.421875 126.6875 C 99.421875 127.769531 98.597656 128.726562 96.851562 128.726562 C 96.140625 128.726562 95.394531 128.515625 95.023438 128.292969 L 95.296875 127.269531 C 95.699219 127.5 96.300781 127.703125 96.933594 127.703125 C 97.726562 127.703125 98.167969 127.328125 98.167969 126.78125 C 98.167969 126.265625 97.824219 125.964844 96.964844 125.65625 C 95.847656 125.25 95.136719 124.660156 95.136719 123.683594 C 95.136719 122.582031 96.058594 121.738281 97.523438 121.738281 C 98.257812 121.738281 98.800781 121.898438 99.152344 122.078125 L 98.851562 123.074219 C 98.609375 122.941406 98.136719 122.75 97.503906 122.75 C 96.722656 122.75 96.382812 123.171875 96.382812 123.566406 C 96.382812 124.085938 96.773438 124.328125 97.675781 124.679688 C 98.851562 125.121094 99.421875 125.714844 99.421875 126.6875 M 92.445312 121.847656 L 93.589844 121.847656 L 93.589844 128.617188 L 92.316406 128.617188 L 90.546875 125.632812 C 90.117188 124.898438 89.664062 124.066406 89.332031 123.304688 L 89.300781 123.3125 C 89.351562 124.1875 89.363281 125.082031 89.363281 126.195312 L 89.363281 128.617188 L 88.226562 128.617188 L 88.226562 121.847656 L 89.632812 121.847656 L 91.382812 124.75 C 91.832031 125.503906 92.222656 126.285156 92.535156 127.019531 L 92.554688 127.019531 C 92.476562 126.117188 92.445312 125.242188 92.445312 124.207031 Z M 85.226562 121.847656 L 86.460938 121.847656 L 86.460938 128.617188 L 85.226562 128.617188 Z M 100.246094 121.847656 L 105.355469 121.847656 L 105.355469 122.882812 L 103.40625 122.882812 L 103.40625 128.617188 L 102.171875 128.617188 L 102.171875 122.882812 L 100.246094 122.882812 Z M 148.941406 124.929688 L 148.207031 124.929688 L 148.207031 122.792969 C 148.328125 122.761719 148.578125 122.730469 148.972656 122.730469 C 149.773438 122.730469 150.296875 123.074219 150.296875 123.816406 C 150.296875 124.488281 149.773438 124.929688 148.941406 124.929688 M 151.523438 123.695312 C 151.523438 123.121094 151.3125 122.652344 150.941406 122.339844 C 150.488281 121.957031 149.824219 121.796875 148.851562 121.796875 C 148.136719 121.796875 147.445312 121.859375 146.984375 121.9375 L 146.984375 128.617188 L 148.207031 128.617188 L 148.207031 125.832031 L 148.832031 125.832031 C 149.535156 125.855469 149.855469 126.136719 150.046875 127.019531 C 150.238281 127.863281 150.398438 128.414062 150.496094 128.617188 L 151.773438 128.617188 C 151.632812 128.355469 151.453125 127.574219 151.242188 126.726562 C 151.070312 126.078125 150.777344 125.601562 150.296875 125.421875 L 150.296875 125.390625 C 150.929688 125.160156 151.523438 124.570312 151.523438 123.695312 "/>
</g>
</svg>
